<?xml version="1.0" encoding="UTF-8" standalone="no"?>
<svg
   xmlns:dc="http://purl.org/dc/elements/1.1/"
   xmlns:cc="http://creativecommons.org/ns#"
   xmlns:rdf="http://www.w3.org/1999/02/22-rdf-syntax-ns#"
   xmlns:svg="http://www.w3.org/2000/svg"
   xmlns="http://www.w3.org/2000/svg"
   xmlns:sodipodi="http://sodipodi.sourceforge.net/DTD/sodipodi-0.dtd"
   xmlns:inkscape="http://www.inkscape.org/namespaces/inkscape"
   sodipodi:docname="logo.svg"
   inkscape:version="1.0beta1 (76ce730, 2019-10-19)"
   id="svg8"
   version="1.1"
   viewBox="0 0 45.000001 70.000001"
   height="70mm"
   width="45mm">
  <defs
     id="defs2" />
  <sodipodi:namedview
     fit-margin-bottom="0"
     fit-margin-right="0"
     fit-margin-left="0"
     fit-margin-top="0"
     inkscape:window-maximized="0"
     inkscape:window-y="23"
     inkscape:window-x="0"
     inkscape:window-height="799"
     inkscape:window-width="1440"
     inkscape:guide-bbox="true"
     showguides="true"
     showgrid="true"
     inkscape:document-rotation="0"
     inkscape:current-layer="layer1"
     inkscape:document-units="mm"
     inkscape:cy="160.77614"
     inkscape:cx="81.44241"
     inkscape:zoom="2.2445173"
     inkscape:pageshadow="2"
     inkscape:pageopacity="0.0"
     borderopacity="1.0"
     bordercolor="#666666"
     pagecolor="#ffffff"
     id="base">
    <inkscape:grid
       originy="-84.589054"
       originx="-78.950846"
       id="grid10"
       type="xygrid" />
  </sodipodi:namedview>
  <metadata
     id="metadata5">
    <rdf:RDF>
      <cc:Work
         rdf:about="">
        <dc:format>image/svg+xml</dc:format>
        <dc:type
           rdf:resource="http://purl.org/dc/dcmitype/StillImage" />
        <dc:title />
      </cc:Work>
    </rdf:RDF>
  </metadata>
  <g
     transform="translate(-78.950844,-84.589054)"
     id="layer1"
     inkscape:groupmode="layer"
     inkscape:label="Layer 1">
    <path
       sodipodi:nodetypes="cczczcczczccc"
       inkscape:connector-curvature="0"
       id="path12"
       d="m 119.06285,152.68001 c 2.80464,0 4.00662,-1.20198 3.2053,-3.20529 0,0 -14.02316,-23.63905 -14.42383,-27.24501 -0.40066,-3.60596 0,-17.30859 0,-17.30859 0,0 1.2249,0.37775 1.60265,0 0.37775,-0.37775 0.40067,-2.9649 0,-3.52583 -0.80132,-0.24039 -15.225148,-0.24039 -16.026472,0 -0.400661,0.56093 -0.377748,3.14808 0,3.52583 0.377748,0.37775 1.602648,0 1.602648,0 0,0 0.400661,13.70263 0,17.30859 -0.400662,3.60596 -14.423827,27.24501 -14.423827,27.24501 -0.801323,1.60264 0.801324,3.20529 3.205295,3.20529 z"
       style="opacity:1;fill:none;fill-opacity:1;stroke:#800080;stroke-width:1.20199;stroke-linecap:butt;stroke-linejoin:miter;stroke-miterlimit:4;stroke-dasharray:none;stroke-opacity:1;stop-opacity:1" />
    <path
       style="opacity:1;fill:#800080;fill-opacity:1;stroke:none;stroke-width:0.683012;stroke-linecap:butt;stroke-linejoin:miter;stroke-miterlimit:4;stroke-dasharray:none;stroke-opacity:1;stop-opacity:1"
       d="m 117.51367,151.07736 c 2.39054,0 2.25493,-0.85878 1.57192,-2.56631 l -9.85324,-17.84754 c -4.55462,-6.87379 -9.23822,10.94797 -17.913656,3.94277 l -7.749744,13.90477 c -0.683012,1.36602 -0.808578,2.56631 1.240459,2.56631 z"
       id="path861"
       inkscape:connector-curvature="0"
       sodipodi:nodetypes="ccccccc" />
    <circle
       r="0.80132365"
       cy="107.1022"
       cx="103.94405"
       id="path865"
       style="opacity:1;fill:#800080;fill-opacity:1;stroke-width:0.801323;stroke-miterlimit:4;stroke-dasharray:none;stop-opacity:1" />
    <circle
       r="0.80132365"
       cy="112.74976"
       cx="101.35136"
       id="path869"
       style="opacity:1;fill:#800080;fill-opacity:1;stroke-width:0.801323;stroke-miterlimit:4;stroke-dasharray:none;stop-opacity:1" />
    <circle
       r="2.4039712"
       cy="129.60188"
       cx="98.228439"
       id="path877"
       style="opacity:1;fill:#800080;fill-opacity:1;stroke-width:0.801323;stroke-miterlimit:4;stroke-dasharray:none;stop-opacity:1" />
    <circle
       r="1.6026473"
       cy="122.36809"
       cx="103.11886"
       id="path879"
       style="opacity:1;fill:#800080;fill-opacity:1;stroke-width:0.801323;stroke-miterlimit:4;stroke-dasharray:none;stop-opacity:1" />
    <circle
       r="1.6026473"
       cy="94.598885"
       cx="103.36021"
       id="path883"
       style="opacity:1;fill:#800080;fill-opacity:1;stroke-width:0.801323;stroke-miterlimit:4;stroke-dasharray:none;stop-opacity:1" />
    <circle
       r="1.2019856"
       cy="87.099091"
       cx="99.955406"
       id="path885"
       style="opacity:1;fill:#800080;fill-opacity:1;stroke-width:0.801323;stroke-miterlimit:4;stroke-dasharray:none;stop-opacity:1" />
    <g
       aria-label="b"
       id="text889"
       style="font-style:normal;font-variant:normal;font-weight:normal;font-stretch:normal;font-size:14.4238px;line-height:1.25;font-family:'PT Mono';-inkscape-font-specification:'PT Mono Normal';font-variant-ligatures:normal;font-variant-caps:normal;font-variant-numeric:normal;font-variant-east-asian:normal;opacity:1;fill:#ffffff;fill-opacity:1;stroke:none;stroke-width:0.295079;stop-opacity:1">
      <path
         d="m 95.501364,138.76709 h 2.985727 v 3.46172 h 0.05769 q 0.3029,-0.34618 0.807733,-0.54811 0.519256,-0.20193 1.269291,-0.20193 1.42796,0 2.27896,0.89427 0.86543,0.89428 0.86543,2.69725 0,0.9664 -0.28847,1.71644 -0.28848,0.73561 -0.82216,1.24044 -0.51926,0.49041 -1.28372,0.75004 -0.75004,0.25963 -1.702008,0.25963 -1.125056,0 -1.889518,-0.25963 -0.750037,-0.25963 -1.168327,-0.51926 v -7.90424 h -1.110633 z m 4.601196,4.2983 q -0.201937,0 -0.447142,0.0721 -0.245204,0.0721 -0.475985,0.20193 -0.216357,0.12981 -0.41829,0.33175 -0.18751,0.18751 -0.274052,0.43271 v 3.00015 q 0.23078,0.11539 0.634647,0.23078 0.403866,0.11539 0.865428,0.11539 0.375014,0 0.706764,-0.12981 0.34617,-0.14424 0.59138,-0.43272 0.25963,-0.28847 0.40386,-0.72119 0.14424,-0.43271 0.14424,-1.03851 0,-1.02409 -0.44714,-1.54335 -0.43271,-0.51925 -1.28371,-0.51925 z"
         style="font-style:normal;font-variant:normal;font-weight:bold;font-stretch:normal;font-family:'PT Mono';-inkscape-font-specification:'PT Mono Bold';font-variant-ligatures:normal;font-variant-caps:normal;font-variant-numeric:normal;font-variant-east-asian:normal;fill:#ffffff;fill-opacity:1;stroke-width:0.295079"
         id="path36" />
    </g>
    <g
       aria-label="N"
       id="text897"
       style="font-style:normal;font-variant:normal;font-weight:bold;font-stretch:normal;font-size:7.69271px;line-height:1.25;font-family:'PT Mono';-inkscape-font-specification:'PT Mono Bold';font-variant-ligatures:normal;font-variant-caps:normal;font-variant-numeric:normal;font-variant-east-asian:normal;opacity:1;fill:#ffffff;fill-opacity:1;stroke-width:0.0801323;stop-opacity:1">
      <path
         d="m 103.92017,137.13109 h -0.0385 l 0.0462,0.6385 v 2.54628 h -1.00005 v -5.38489 h 0.92312 l 1.86164,3.29248 h 0.0385 l -0.0692,-0.64619 v -2.64629 h 1.00005 v 5.38489 h -0.92312 z"
         style="font-style:normal;font-variant:normal;font-weight:bold;font-stretch:normal;font-family:'PT Mono';-inkscape-font-specification:'PT Mono Bold';font-variant-ligatures:normal;font-variant-caps:normal;font-variant-numeric:normal;font-variant-east-asian:normal;fill:#ffffff;fill-opacity:1;stroke-width:0.0801323"
         id="path33" />
    </g>
  </g>
</svg>
